# xmcd
#
# Track frame offsets:
#	150
#	3019
#	19142
#	35608
#	53008
#	76591
#	92669
#	108157
#	126010
#	143122
#	160712
#	179871
#	204644
#
# Disc length: 3012 seconds
#
# Revision: 0
# Processed by: cddbd v1.5.2PL0 Copyright (c) Steve Scherf et al.
# Submitted via: EasyCDDAExtractor 8.1.2.3
#
DISCID=9b0bc20d
DTITLE=Koxie
DYEAR=2007
DGENRE=
TTITLE0=Intro
TTITLE1=Rever De Ca
TTITLE2=Garcon
TTITLE3=Sortir De L'ombre
TTITLE4=Ma Meilleure amie
TTITLE5=Seule Avec Toi
TTITLE6=Sacre Salah
TTITLE7=Plus De Place Pour Les Reves
TTITLE8=J'aime
TTITLE9=Je Fais Des Rimes
TTITLE10=Femme De Football Fan
TTITLE11=Sans Essayer
TTITLE12=La Force De Croire
EXTD=
EXTT0=
EXTT1=
EXTT2=
EXTT3=
EXTT4=
EXTT5=
EXTT6=
EXTT7=
EXTT8=
EXTT9=
EXTT10=
EXTT11=
EXTT12=
PLAYORDER=
